{"title":"Captain.America.Civil.War.2016.1080p.TC.X264.Masteredition.Hive-","uid":14602727,"size":5919245536,"categoryP":"video","categoryS":"movies","magnet":"?xt=urn:btih:8ddf2a949242ff96fc7141373f2395e96bdf4054&amp;dn=Captain.America.Civil.War.2016.1080p.TC.X264.Masteredition.Hive-&amp;tr=udp%3A%2F%2Ftracker.leechers-paradise.org%3A6969&amp;tr=udp%3A%2F%2Fzer0day.ch%3A1337&amp;tr=udp%3A%2F%2Fopen.demonii.com%3A1337&amp;tr=udp%3A%2F%2Ftracker.coppersurfer.tk%3A6969&amp;tr=udp%3A%2F%2Fexodus.desync.com%3A6969","seeders":41,"leechers":15,"uploader":"xxxlavalxxx","files":4,"time":1463057033,"description":"http://extraimago.com/image/adfe\r\n \nhttp://www.imdb.com/title/tt3498820/\r\n\r\n\r\nPolitical interference in the Avengers' activities causes a rift between former allies Captain America and Iron Man.\r\n\r\nDirectors: Anthony Russo, Joe Russo\r\nWriters: Christopher Markus (screenplay), Stephen McFeely (screenplay)\r\nStars: Chris Evans, Robert Downey Jr., Scarlett Johansson \r\nGenres: Action | Adventure | Sci-Fi\r\nCountry: USA\r\nLanguage: English | German | Russian | Romanian\r\n\r\n\r\nCaptain.America.Civil.War.2016.1080p.TC.X264.Masteredition.Hive-CM8\r\n\r\nThx Hive\r\n\r\nCM8 Doing It Right The First Time \r\n\r\nSources:\r\n\r\nVideo: 1080p Chinese Telecine \r\nAudio: Direct Line  (CPG/Exclusive)\r\nthx\r\n\r\n\r\nNotes:\r\nThis is a special Encode which took me cpl days of work, but the result is excellent, its a masterpiece from this source.\r\nI have encoded it in 1080p only cause this movie needs quality. looks and sounds perfect a real cinemafeeling.\r\nQuality is tested and optimized to look perfect even on a 75&quot; 4K TV.\r\n\r\n\r\nEncode:\r\nThe Chinese telecine needed a lot of work,was all green again, no real colours\r\nfixed brightness,constrast,colours,saturation,black base,white base,for all scenes \r\nit was a pita, but totally worth it. nothing is cut from the movie btw.\r\ncomes along with bonus credits scene and the aftercredits scene\r\n\r\nLine Audio was great, lipsynced to my video.\r\n\r\ngot very nice and will do me till retail\r\nenjoy\r\n\r\nPS: more Masteredition are coming!\r\n\r\nVideo: 1920x852 @bitrate 5000-8000\r\nAudio: Line AC3 2.0 Stereo\r\nSample: yes included\r\n\r\n \nhttp://www.imdb.com/title/tt3498820/\r\n\r\n\r\nGeneral\r\nComplete name                  : Captain.America.Civil.War.2016.1080p.TC.X264.Masteredition.Hive-CM8.mkv\r\nFormat                         : Matroska\r\nFormat version                 : Version 2\r\nFile size                      : 5.40 GiB\r\nDuration                       : 2h 27mn\r\nOverall bit rate mode          : Variable\r\nOverall bit rate               : 5 254 Kbps\r\nEncoded date                   : UTC 2016-05-11 23:03:02\r\nWriting application            : mkvmerge v5.6.0 ('Kenya Kane') built on May 27 2012 16:44:04\r\nWriting library                : libebml v1.2.3 + libmatroska v1.3.0\r\n\r\nVideo\r\nID                             : 1\r\nFormat                         : AVC\r\nFormat/Info                    : Advanced Video Codec\r\nFormat profile                 :   \r\nFormat settings, CABAC         : Yes\r\nFormat settings, ReFrames      : 4 frames\r\nMuxing mode                    : Header stripping\r\nCodec ID                       : V_MPEG4/ISO/AVC\r\nDuration                       : 2h 27mn\r\nBit rate mode                  : Variable\r\nBit rate                       : 4 893 Kbps\r\nMaximum bit rate               : 8 000 Kbps\r\nWidth                          : 1 920 pixels\r\nHeight                         : 852 pixels\r\nDisplay aspect ratio           : 2.25:1\r\nFrame rate mode                : Constant\r\nFrame rate                     : 29.970 fps\r\nStandard                       : NTSC\r\nColor space                    : YUV\r\nChroma subsampling             : 4:2:0\r\nBit depth                      : 8 bits\r\nScan type                      : Progressive\r\nBits/(Pixel*Frame)             : 0.100\r\nStream size                    : 5.03 GiB (93%)\r\nLanguage                       : English\r\nDefault                        : Yes\r\nForced                         : No\r\nColor primaries                : BT.709\r\nTransfer characteristics       : BT.709\r\nMatrix coefficients            : BT.709\r\nColor range                    : Limited\r\n\r\nAudio\r\nID                             : 2\r\nFormat                         : AC-3\r\nFormat/Info                    : Audio Coding 3\r\nMode extension                 : CM (complete main)\r\nFormat settings, Endianness    : Big\r\nMuxing mode                    : Header stripping\r\nCodec ID                       : A_AC3\r\nDuration                       : 2h 27mn\r\nBit rate mode                  : Constant\r\nBit rate                       : 256 Kbps\r\nChannel(s)                     : 2 channels\r\nChannel positions              : Front: L R\r\nSampling rate                  : 48.0 KHz\r\nBit depth                      : 16 bits\r\nCompression mode               : Lossy\r\nDelay relative to video        : 18ms\r\nStream size                    : 270 MiB (5%)\r\nLanguage                       : English\r\nDefault                        : Yes\r\nForced                         : No\r\n\r\n \nhttp://extraimago.com/image/abie \nhttp://extraimago.com/image/abi4 \nhttp://extraimago.com/image/abiB \nhttp://extraimago.com/image/abiC \nhttp://extraimago.com/image/abiY \nhttp://extraimago.com/image/abir \nhttp://extraimago.com/image/abiG \nhttp://extraimago.com/image/abiX \nhttp://extraimago.com/image/abi5 \nhttp://extraimago.com/image/abiD \nhttp://extraimago.com/image/abiH \nhttp://extraimago.com/image/abio","torrent":{"xt":"urn:btih:8ddf2a949242ff96fc7141373f2395e96bdf4054","amp;dn":"Captain.America.Civil.War.2016.1080p.TC.X264.Masteredition.Hive-","amp;tr":["udp%3A%2F%2Ftracker.leechers-paradise.org%3A6969","udp%3A%2F%2Fzer0day.ch%3A1337","udp%3A%2F%2Fopen.demonii.com%3A1337","udp%3A%2F%2Ftracker.coppersurfer.tk%3A6969","udp%3A%2F%2Fexodus.desync.com%3A6969"],"infoHash":"8ddf2a949242ff96fc7141373f2395e96bdf4054","infoHashBuffer":{"type":"Buffer","data":[141,223,42,148,146,66,255,150,252,113,65,55,63,35,149,233,107,223,64,84]},"announce":[],"urlList":[]}}